<?xml version="1.0" encoding="UTF-8"?>
<svg xmlns="http://www.w3.org/2000/svg" xmlns:xlink="http://www.w3.org/1999/xlink" width="60px" height="60px" viewBox="0 0 60 60" version="1.1">
<g id="surface1">
<path style=" stroke:none;fill-rule:nonzero;fill:rgb(0%,0%,0%);fill-opacity:1;" d="M 36.863281 2.742188 C 35.773438 2.046875 34.78125 1.261719 33.734375 0 L 26.273438 0 C 25.226562 1.261719 24.234375 2.046875 23.144531 2.742188 L 20.269531 4.574219 L 16.941406 15.996094 L 6.46875 5.527344 L 5.527344 6.46875 L 14.523438 15.464844 L 0 29.992188 L 14.523438 44.515625 L 5.527344 53.511719 L 6.46875 54.453125 L 16.917969 44.003906 L 20.242188 55.40625 L 23.121094 57.238281 C 24.105469 57.867188 25.003906 58.617188 25.796875 59.472656 L 31.765625 41.785156 L 24.351562 41.785156 L 23.984375 39.378906 L 27.699219 39.378906 L 28.289062 39.96875 L 33.65625 34.601562 L 35.355469 36.300781 L 32.28125 39.378906 L 35.96875 39.378906 L 35.601562 41.785156 L 33.167969 41.785156 L 27.03125 59.980469 L 32.925781 59.980469 L 30.683594 53.328125 L 31.386719 51.242188 L 34.164062 59.472656 C 34.957031 58.617188 35.855469 57.867188 36.839844 57.238281 L 39.714844 55.40625 L 43.042969 43.984375 L 53.511719 54.453125 L 54.457031 53.511719 L 45.457031 44.515625 L 59.980469 29.992188 L 45.457031 15.464844 L 54.453125 6.46875 L 53.511719 5.527344 L 43.0625 15.976562 L 39.738281 4.574219 Z M 21.40625 5.429688 L 23.859375 3.867188 C 24.738281 3.308594 25.554688 2.65625 26.296875 1.925781 L 28.597656 8.738281 L 29.300781 6.652344 L 27.503906 1.332031 L 32.5 1.332031 L 26.808594 18.199219 L 24.378906 18.199219 L 24.011719 20.601562 L 27.699219 20.601562 L 24.621094 23.679688 L 22.515625 21.570312 L 23.800781 13.109375 L 22.980469 12.984375 L 21.785156 20.839844 L 18.015625 17.070312 Z M 15.464844 43.574219 L 1.882812 29.992188 L 15.464844 16.40625 L 21.722656 22.667969 L 14.398438 29.992188 L 21.722656 37.316406 Z M 22.953125 46.992188 L 21.761719 39.160156 L 22.496094 38.429688 L 23.777344 46.867188 Z M 22.3125 36.726562 L 15.578125 29.992188 L 22.3125 23.253906 L 29.046875 29.992188 Z M 27.699219 39.378906 L 24.625 36.300781 L 26.324219 34.597656 L 29.402344 37.675781 Z M 29.992188 29.046875 L 26.324219 25.378906 L 31.691406 20.011719 L 32.277344 20.601562 L 35.992188 20.601562 L 35.625 18.199219 L 28.214844 18.199219 L 33.707031 1.925781 C 34.449219 2.65625 35.265625 3.308594 36.144531 3.867188 L 38.597656 5.429688 L 41.988281 17.050781 L 38.21875 20.816406 L 37.027344 12.984375 L 36.203125 13.109375 L 37.488281 21.550781 L 35.359375 23.679688 L 32.28125 20.601562 L 30.582031 22.304688 L 33.660156 25.378906 Z M 30.933594 29.992188 L 37.667969 23.257812 L 44.402344 29.992188 L 37.667969 36.726562 Z M 37 46.992188 L 36.179688 46.867188 L 37.464844 38.40625 L 38.199219 39.140625 Z M 38.257812 37.316406 L 45.582031 29.992188 L 38.257812 22.667969 L 44.515625 16.410156 L 58.097656 29.992188 L 44.515625 43.574219 Z M 38.257812 37.316406 "/>
</g>
</svg>
